<svg width="79" height="79" viewBox="0 0 79 79" fill="none" xmlns="http://www.w3.org/2000/svg">
<path d="M78.8611 56.6424C78.8611 63.4592 72.2295 68.9861 64.1875 68.9861C56.1455 68.9861 49.5139 63.4592 49.5139 56.7812C49.5139 49.9644 56.1455 44.5764 64.1875 44.5764C65.928 44.5764 67.5743 44.8726 69.1265 45.3321V22.8514L29.625 34.5625L29.6247 66.6717C29.4861 73.4762 22.9902 79 14.6736 79C6.35703 79 0 73.4762 0 66.6562C0 59.8394 6.63168 54.4514 14.6736 54.4514C16.4141 54.4514 18.0604 54.7476 19.6111 55.2071V19.5186C19.6111 17.5173 21.1634 15.4096 23.0689 14.8094L72.3051 0.229902C72.8436 0.10199 73.6459 0 74.0625 0C76.7874 0 78.9954 2.21262 79 4.93596L78.8611 56.6424Z" fill="#EEEEEE"/>
</svg>
