<svg width="93" height="90" viewBox="0 0 93 90" fill="none" xmlns="http://www.w3.org/2000/svg">
<path d="M46.5 22.5C43.626 22.5 40.8165 23.3248 38.4269 24.87C36.0372 26.4152 34.1747 28.6114 33.0749 31.181C31.975 33.7506 31.6873 36.5781 32.248 39.306C32.8087 42.0338 34.1926 44.5395 36.2249 46.5062C38.2571 48.4729 40.8463 49.8122 43.6651 50.3548C46.4839 50.8974 49.4056 50.6189 52.0609 49.5546C54.7161 48.4902 56.9856 46.6878 58.5823 44.3752C60.179 42.0626 61.0313 39.3438 61.0313 36.5625C61.0313 32.8329 59.5003 29.256 56.7752 26.6188C54.05 23.9816 50.3539 22.5 46.5 22.5Z" fill="white"/>
<path d="M46.5 5.625C38.4528 5.625 30.5862 7.9343 23.8952 12.2609C17.2042 16.5875 11.9892 22.737 8.90964 29.9318C5.8301 37.1267 5.02435 45.0437 6.59429 52.6817C8.16422 60.3197 12.0393 67.3356 17.7296 72.8423C23.4198 78.349 30.6697 82.0991 38.5623 83.6184C46.4549 85.1377 54.6358 84.358 62.0704 81.3778C69.5051 78.3976 75.8596 73.3508 80.3304 66.8756C84.8012 60.4004 87.1875 52.7876 87.1875 45C87.1752 34.5608 82.8845 24.5525 75.2568 17.1708C67.6291 9.78916 57.2872 5.63691 46.5 5.625V5.625ZM69.7267 70.1044C69.6688 66.4153 68.1157 62.8959 65.402 60.3045C62.6883 57.713 59.0312 56.257 55.2187 56.25H37.7812C33.9688 56.257 30.3117 57.713 27.598 60.3045C24.8843 62.8959 23.3312 66.4153 23.2732 70.1044C18.0029 65.5502 14.2863 59.5543 12.6155 52.9106C10.9447 46.2669 11.3986 39.2888 13.917 32.9002C16.4353 26.5117 20.8995 21.0141 26.7182 17.1353C32.537 13.2566 39.4359 11.1798 46.5014 11.1798C53.567 11.1798 60.4659 13.2566 66.2847 17.1353C72.1034 21.0141 76.5675 26.5117 79.0859 32.9002C81.6043 39.2888 82.0581 46.2669 80.3873 52.9106C78.7166 59.5543 74.9999 65.5502 69.7296 70.1044H69.7267Z" fill="white"/>
</svg>
